<?xml version="1.0" encoding="utf-8"?>
<!-- Generator: Adobe Illustrator 24.3.0, SVG Export Plug-In . SVG Version: 6.00 Build 0)  -->
<svg version="1.1" id="圖層_1" xmlns="http://www.w3.org/2000/svg" xmlns:xlink="http://www.w3.org/1999/xlink" x="0px" y="0px"
	 viewBox="0 0 141.7 50" width="141.7" height="50" style="enable-background:new 0 0 141.7 50;" xml:space="preserve">
<style type="text/css">
	.st0{fill-rule:evenodd;clip-rule:evenodd;fill:#009844;}
	.st1{fill-rule:evenodd;clip-rule:evenodd;fill:#FFFFFF;}
</style>
<g>
	<path class="st0" d="M25.3,45.7c-2.8-0.9-4.8-1.8-7.8-1.9c-0.8,0-1.7-0.7-4.2-0.6c-4,0.2-7.1-10.9-8.3-14.1
		c-1.5-4.1-2.1-10,1.3-13.6c1.2-1.3,1.4-2.4,3.5-3.5c0.5-0.2,5.2-3.5,5.2-3.5c3.9-0.7,5.8-3.2,10.6-0.7c2.7,1.4,1.5-0.2,4.5,2.5
		c2,1.9,4.7,8.1,4.9,10.9c0.1,1.9,3.5,6.5,4.3,10.2c0.6,2.8,4.4,10-1.1,11.9c-2.5,0.9-6.4,3.2-9.1,3.1
		C26.9,46.5,26.5,47.5,25.3,45.7z"/>
	<g>
		<path class="st0" d="M66.6,40.3c0,1.2-0.6,2.3-1.7,3.3c-1,0.9-2.4,1.3-4.1,1.3c-2.1,0-3.8-0.6-4.9-1.9c-1.2-1.3-1.8-3-1.8-5.2
			c0-2.2,0.6-3.9,1.8-5.2c1.2-1.3,2.8-2,4.8-2c2,0,3.5,0.5,4.6,1.6c0.9,0.8,1.3,1.7,1.3,2.7c0,0.4-0.1,0.7-0.4,1
			c-0.3,0.3-0.6,0.4-1,0.4c-0.6,0-1.1-0.4-1.5-1.2c-0.6-1.3-1.6-1.9-2.9-1.9c-2.2,0-3.3,1.6-3.3,4.7c0,1.5,0.3,2.7,0.8,3.4
			c0.6,0.7,1.4,1.1,2.4,1.1c1.4,0,2.4-0.8,3-2.3c0.3-0.8,0.8-1.2,1.4-1.2c0.4,0,0.7,0.1,1,0.4C66.4,39.6,66.6,39.9,66.6,40.3z"/>
		<path class="st0" d="M78.7,39.4c0,1.5-0.4,2.7-1.2,3.6c-0.9,1-2.1,1.5-3.7,1.5c-1.6,0-2.9-0.5-3.7-1.4c-0.8-0.9-1.2-2.1-1.2-3.7
			c0-1.5,0.4-2.6,1.2-3.5c0.9-1,2.1-1.5,3.7-1.5c1.7,0,2.9,0.5,3.8,1.5C78.3,36.7,78.7,37.9,78.7,39.4L78.7,39.4z M76.3,39.4
			c0-0.7-0.1-1.3-0.3-1.8c-0.4-0.9-1.2-1.4-2.2-1.4c-0.8,0-1.5,0.3-1.9,0.8c-0.4,0.5-0.7,1.3-0.7,2.4c0,1,0.2,1.8,0.7,2.4
			c0.5,0.6,1.1,0.9,1.8,0.9c0.9,0,1.7-0.4,2.1-1.2C76.2,41,76.3,40.3,76.3,39.4z"/>
		<path class="st0" d="M91.6,42.8c0,0.5,0,0.8,0,0.9c0,0.2-0.1,0.4-0.2,0.5c-0.2,0.2-0.4,0.3-0.7,0.3c-0.3,0-0.6-0.1-0.7-0.3
			c-0.1-0.1-0.2-0.3-0.2-0.6c0-0.1,0-0.4,0-0.9v-6.1l-0.2,0l-1.6,6.1c-0.1,0.5-0.2,0.8-0.3,1c-0.1,0.2-0.2,0.4-0.4,0.5
			c-0.2,0.2-0.5,0.3-0.8,0.3c-0.3,0-0.6-0.1-0.8-0.3c-0.1-0.1-0.2-0.3-0.3-0.5c0-0.1-0.1-0.4-0.3-1l-1.6-6.1l-0.2,0v6.1
			c0,0.5,0,0.8,0,0.9c0,0.2-0.1,0.4-0.2,0.5c-0.2,0.2-0.5,0.3-0.8,0.3c-0.3,0-0.5-0.1-0.7-0.3c-0.1-0.1-0.2-0.3-0.2-0.6
			c0-0.1,0-0.4,0-0.9v-6.2c0-0.6,0-1,0-1.1c0-0.2,0.1-0.4,0.3-0.6c0.2-0.2,0.4-0.3,0.6-0.3c0.1,0,0.4-0.1,0.8-0.1
			c0.5,0,0.9,0,1.1,0.1c0.2,0,0.4,0.2,0.6,0.3c0.1,0.1,0.3,0.6,0.5,1.3l1.2,4.7h0.2l1.2-4.7c0.2-0.8,0.4-1.3,0.6-1.5
			c0.2-0.2,0.7-0.3,1.5-0.3c0.4,0,0.7,0,0.9,0.1c0.2,0.1,0.5,0.2,0.6,0.5c0.1,0.2,0.2,0.7,0.2,1.5V42.8z"/>
		<path class="st0" d="M102.4,43.5c0,0.3-0.1,0.5-0.3,0.7c-0.1,0.1-0.3,0.2-0.5,0.2c-0.1,0-0.4,0-0.8,0h-4.4c-0.6,0-1,0-1.1,0
			c-0.2,0-0.4-0.1-0.6-0.3c-0.2-0.2-0.3-0.4-0.3-0.6c0-0.2,0-0.5,0-1.1v-5.7c0-0.6,0-1,0-1.1c0-0.2,0.1-0.4,0.3-0.6
			c0.2-0.2,0.4-0.3,0.6-0.3c0.2,0,0.5-0.1,1.1-0.1h4.3c0.7,0,1.1,0.1,1.2,0.2c0.2,0.2,0.3,0.4,0.3,0.6c0,0.3-0.1,0.5-0.3,0.6
			c-0.2,0.2-0.6,0.2-1.2,0.2h-4v2.1h3.7c0.4,0,0.6,0,0.8,0c0.2,0,0.3,0.1,0.4,0.2c0.2,0.2,0.3,0.4,0.3,0.6c0,0.2-0.1,0.4-0.3,0.6
			c-0.2,0.2-0.6,0.2-1.2,0.2h-3.7v2.5h4.1c0.7,0,1.1,0.1,1.3,0.3C102.3,43,102.4,43.3,102.4,43.5z"/>
		<path class="st0" d="M121.5,40.8c0,0.8-0.2,1.5-0.7,2.2c-0.4,0.6-1,1.1-1.7,1.3c-0.6,0.3-1.9,0.4-3.7,0.4h-3.1
			c-0.8,0-1.4,0-1.6-0.1c-0.3-0.1-0.5-0.2-0.8-0.4c-0.2-0.2-0.4-0.5-0.4-0.8c0-0.2-0.1-0.7-0.1-1.6v-8c0-0.9,0-1.4,0-1.6
			c0.1-0.3,0.2-0.5,0.4-0.8c0.2-0.2,0.5-0.4,0.8-0.5c0.2,0,0.7-0.1,1.6-0.1h3.6c1.5,0,2.6,0.2,3.3,0.5c0.5,0.2,0.9,0.6,1.2,1.2
			c0.3,0.5,0.5,1.1,0.5,1.7c0,0.9-0.3,1.6-0.9,2.2c-0.3,0.3-0.9,0.6-1.6,0.8c0.9,0.3,1.6,0.6,2,0.9
			C121.1,38.9,121.5,39.7,121.5,40.8L121.5,40.8z M117.5,34.9c0-0.7-0.3-1.1-0.9-1.4c-0.4-0.2-1.1-0.2-2.1-0.2h-1.9v3.2h2
			c0.9,0,1.6-0.1,1.8-0.2C117.2,36.1,117.5,35.6,117.5,34.9L117.5,34.9z M118.1,40.5c0-0.8-0.4-1.3-1.1-1.6c-0.4-0.2-1.1-0.2-2-0.2
			h-2.4v3.6h2.5c0.9,0,1.5-0.1,1.9-0.2C117.8,41.8,118.1,41.3,118.1,40.5z"/>
		<path class="st0" d="M131.8,40.1c0,1.3-0.2,2.3-0.6,2.9c-0.7,1.1-1.9,1.6-3.5,1.6c-0.9,0-1.6-0.1-2.2-0.3
			c-0.8-0.3-1.4-0.7-1.8-1.4c-0.4-0.6-0.5-1.5-0.5-2.7v-3.7c0-0.5,0-0.9,0-1c0-0.3,0.1-0.5,0.3-0.6c0.3-0.3,0.6-0.4,0.9-0.4
			c0.3,0,0.6,0.1,0.9,0.4c0.2,0.1,0.2,0.4,0.3,0.6c0,0.2,0,0.5,0,1v3.8c0,0.7,0.1,1.3,0.2,1.6c0.3,0.6,0.9,0.9,1.7,0.9
			c0.8,0,1.4-0.3,1.7-0.9c0.2-0.3,0.3-0.9,0.3-1.6v-3.9c0-0.5,0-0.9,0-1c0-0.3,0.1-0.5,0.3-0.6c0.3-0.3,0.6-0.4,0.9-0.4
			c0.4,0,0.6,0.1,0.9,0.4c0.2,0.1,0.3,0.3,0.3,0.6c0,0.2,0,0.5,0,1V40.1z"/>
		<path class="st0" d="M141.4,35.3c0,0.2-0.1,0.5-0.3,0.8c0,0-0.2,0.3-0.5,0.8l-2.1,3.3v2.3c0,0.5,0,0.9,0,1c0,0.3-0.1,0.5-0.3,0.6
			c-0.3,0.2-0.5,0.4-0.8,0.4c-0.4,0-0.7-0.1-0.9-0.4c-0.1-0.1-0.2-0.4-0.3-0.6c0-0.1,0-0.5,0-1l0-2.3l-2.1-3.3
			c-0.3-0.4-0.4-0.7-0.5-0.8c-0.2-0.3-0.3-0.6-0.3-0.8c0-0.3,0.1-0.5,0.3-0.7c0.2-0.2,0.5-0.3,0.8-0.3c0.3,0,0.6,0.1,0.8,0.4
			c0.1,0.1,0.4,0.5,0.8,1.1l1.5,2.4l1.4-2.4c0.4-0.6,0.6-1,0.8-1.2c0.2-0.2,0.5-0.4,0.8-0.4c0.3,0,0.6,0.1,0.8,0.3
			C141.3,34.9,141.4,35.1,141.4,35.3z"/>
	</g>
	<path class="st0" d="M55.9,8.1h5.6c0.1-0.4,0.3-0.7,0.5-0.9c0.3-0.3,0.8-0.5,1.4-0.5c0.6,0,1.1,0.2,1.4,0.5
		c0.3,0.2,0.5,0.5,0.5,0.9h5.6c0.6,0,1,0.1,1.3,0.4c0.2,0.2,0.4,0.7,0.4,1.4c0,0.6-0.1,1-0.3,1.3c-0.3,0.4-0.7,0.6-1.4,0.6h-1.1
		c0.1,0,0.2,0.1,0.3,0.1c0.5,0.3,0.8,0.7,0.8,1.2c0,0.2-0.1,0.5-0.2,1c0,0.2-0.1,0.4-0.2,0.6c0.6,0.5,1.2,1,1.8,1.5
		c0.4,0.3,0.6,0.6,0.6,0.9c0,0.5-0.2,1-0.7,1.5c-0.5,0.6-1,0.9-1.5,0.9c-0.3,0-0.6-0.2-1-0.6c-0.2-0.3-0.5-0.5-0.8-0.8
		c-0.2,0.3-0.3,0.5-0.5,0.7c-0.1,0.1-0.2,0.2-0.3,0.2c1.3,1.1,2.6,2.1,3.9,2.9c0.6,0.2,0.9,0.6,0.9,1.1c0,0.7-0.3,1.3-0.7,1.9
		c-0.5,0.6-1.1,0.8-1.9,0.8c-0.4,0-1-0.3-1.7-0.8c-1.2-1-2.4-2.2-3.6-3.6v3.5c0,0.4-0.1,0.8-0.4,1.1c-0.3,0.4-0.9,0.6-1.6,0.6
		c-0.7,0-1.2-0.2-1.6-0.6c-0.3-0.3-0.4-0.6-0.4-1.1v-3.2c-1.3,1.4-2.3,2.4-3.1,3.1c-0.7,0.6-1.3,0.9-1.8,0.9c-0.8,0-1.5-0.4-2-1
		c-0.5-0.5-0.7-1.1-0.6-1.6c0-0.4,0.2-0.6,0.6-0.9c1.9-1.3,3.4-2.4,4.6-3.4c-0.1-0.1-0.2-0.2-0.3-0.3c-0.2-0.2-0.4-0.4-0.6-0.6
		c-0.3,0.5-0.6,1-1,1.3c-0.4,0.4-0.8,0.6-1.3,0.7c-0.5,0-1-0.2-1.5-0.7c-0.4-0.3-0.6-0.7-0.6-1.3c0-0.2,0.1-0.4,0.2-0.5
		c0.7-0.9,1.2-1.7,1.4-2.3c0.3-0.6,0.6-1.5,0.9-2.6c0.1-0.2,0.2-0.4,0.3-0.5h-0.9c-0.5,0-1-0.2-1.3-0.5c-0.3-0.3-0.4-0.8-0.4-1.5
		c0-0.7,0.1-1.2,0.4-1.4C54.9,8.3,55.3,8.1,55.9,8.1L55.9,8.1z M61.5,15.9v-4h-2.6c0.1,0,0.2,0.1,0.2,0.1c0.5,0.3,0.8,0.6,0.8,1.1
		c0,0.2-0.1,0.6-0.2,1c0,0.1-0.1,0.2-0.1,0.3c0.5,0.4,1.1,0.9,1.7,1.4C61.4,15.8,61.5,15.8,61.5,15.9L61.5,15.9z M65.5,11.9V16
		c0.1,0.2,0.3,0.3,0.4,0.5c0.4-0.6,0.7-1.1,0.8-1.6c0.3-0.6,0.5-1.4,0.8-2.5c0.1-0.2,0.2-0.4,0.4-0.5H65.5L65.5,11.9z M78.7,8.1h5.6
		c0.1-0.4,0.3-0.7,0.5-0.9c0.3-0.3,0.8-0.5,1.4-0.5c0.6,0,1.1,0.2,1.4,0.5c0.3,0.2,0.5,0.5,0.5,0.9h5.6c0.6,0,1,0.1,1.3,0.4
		c0.2,0.2,0.4,0.7,0.4,1.4c0,0.6-0.1,1-0.3,1.3c-0.3,0.4-0.7,0.6-1.4,0.6h-1.1c0.1,0,0.2,0.1,0.3,0.1c0.5,0.3,0.8,0.7,0.8,1.2
		c0,0.2-0.1,0.5-0.2,1c0,0.2-0.1,0.4-0.2,0.6c0.6,0.5,1.2,1,1.8,1.5c0.4,0.3,0.6,0.6,0.6,0.9c0,0.5-0.2,1-0.7,1.5
		c-0.5,0.6-1,0.9-1.5,0.9c-0.3,0-0.6-0.2-1-0.6c-0.2-0.3-0.5-0.5-0.8-0.8c-0.2,0.3-0.3,0.5-0.5,0.7c-0.1,0.1-0.2,0.2-0.3,0.2
		c1.3,1.1,2.6,2.1,3.9,2.9c0.6,0.2,0.9,0.6,0.9,1.1c0,0.7-0.3,1.3-0.7,1.9c-0.5,0.6-1.1,0.8-1.9,0.8c-0.4,0-1-0.3-1.7-0.8
		c-1.2-1-2.4-2.2-3.6-3.6v3.5c0,0.4-0.1,0.8-0.4,1.1c-0.3,0.4-0.9,0.6-1.6,0.6c-0.7,0-1.2-0.2-1.6-0.6c-0.3-0.3-0.4-0.6-0.4-1.1
		v-3.2C83,23,82,24.1,81.2,24.7c-0.7,0.6-1.3,0.9-1.8,0.9c-0.8,0-1.5-0.4-2-1c-0.5-0.5-0.7-1.1-0.6-1.6c0-0.4,0.2-0.6,0.6-0.9
		c1.9-1.3,3.4-2.4,4.6-3.4c-0.1-0.1-0.2-0.2-0.3-0.3c-0.2-0.2-0.4-0.4-0.6-0.6c-0.3,0.5-0.6,1-1,1.3c-0.4,0.4-0.8,0.6-1.3,0.7
		c-0.5,0-1-0.2-1.5-0.7c-0.4-0.3-0.6-0.7-0.6-1.3c0-0.2,0.1-0.4,0.2-0.5c0.7-0.9,1.2-1.7,1.4-2.3c0.3-0.6,0.6-1.5,0.9-2.6
		c0.1-0.2,0.2-0.4,0.3-0.5h-0.9c-0.5,0-1-0.2-1.3-0.5C77.2,11.2,77,10.7,77,10c0-0.7,0.1-1.2,0.4-1.4C77.7,8.3,78.1,8.1,78.7,8.1
		L78.7,8.1z M84.3,15.9v-4h-2.6c0.1,0,0.2,0.1,0.2,0.1c0.5,0.3,0.8,0.6,0.8,1.1c0,0.2-0.1,0.6-0.2,1c0,0.1-0.1,0.2-0.1,0.3
		c0.5,0.4,1.1,0.9,1.7,1.4C84.2,15.8,84.3,15.8,84.3,15.9L84.3,15.9z M88.3,11.9V16c0.1,0.2,0.3,0.3,0.4,0.5
		c0.4-0.6,0.7-1.1,0.8-1.6c0.3-0.6,0.5-1.4,0.8-2.5c0.1-0.2,0.2-0.4,0.4-0.5H88.3L88.3,11.9z M107.4,7.6h3c0.1-0.2,0.2-0.4,0.4-0.5
		c0.3-0.2,0.7-0.4,1.3-0.4c0.6,0,1,0.1,1.3,0.4c0.2,0.2,0.3,0.3,0.4,0.5h2.6c1.3,0,2,0.8,2,2.2v0.7c0.2,0,0.4,0.1,0.6,0.3
		c0.2,0.1,0.3,0.5,0.3,1c0,0.4,0,0.7-0.1,0.9c-0.2,0.2-0.4,0.3-0.7,0.4v1.5c0,1.1-0.7,1.6-2.1,1.6H114v0.4h3c0.3,0,0.6,0.1,0.8,0.3
		c0.2,0.2,0.3,0.5,0.3,1c0,0.4-0.1,0.7-0.2,0.9c-0.2,0.3-0.5,0.4-0.9,0.4h-3v0.3h3.5c0.4,0,0.7,0.1,0.9,0.3c0.2,0.1,0.3,0.5,0.3,1
		c0,0.4-0.1,0.7-0.2,0.9c-0.2,0.3-0.5,0.4-1,0.4H114V23c0.4,0,0.9,0,1.4,0c0.4,0,0.9,0,1.6-0.1c0.6,0,1-0.1,1.2-0.1
		c0.3,0,0.5,0.1,0.7,0.3c0.2,0.2,0.3,0.5,0.3,0.9c0,0.6-0.1,1.1-0.3,1.5c-0.2,0.3-0.5,0.5-0.9,0.6c-0.4,0.1-0.9,0.1-1.5,0.1
		c-3.8,0-6.4-0.1-7.8-0.4c-1.7-0.2-3.3-0.8-4.7-1.7c-0.4,0.7-0.8,1.2-1.1,1.6c-0.4,0.4-0.8,0.6-1.3,0.6c-0.5,0-0.9-0.2-1.5-0.6
		c-0.4-0.3-0.6-0.7-0.6-1.2c0-0.3,0.1-0.6,0.2-0.9c0.5-0.6,1-1.3,1.4-1.9c-0.4-0.4-0.7-0.8-1-1.3c-0.4-0.5-0.7-1-0.7-1.3
		c0-0.5,0.2-0.9,0.6-1.3c0.4-0.4,0.8-0.6,1.3-0.6c0.4,0,0.7,0.2,0.9,0.6c0.2,0.2,0.3,0.4,0.5,0.6c0.2-0.7,0.3-1.2,0.3-1.6
		c0-0.3-0.1-0.4-0.2-0.4h-1.1c-1,0-1.5-0.5-1.5-1.4c0-0.4,0.6-1.7,1.7-3.7c0-0.1-0.1-0.1-0.4-0.1h-0.5c-0.5,0-1-0.1-1.2-0.4
		c-0.2-0.2-0.3-0.7-0.3-1.3c0-0.6,0.2-1.1,0.5-1.4c0.2-0.2,0.6-0.3,1.1-0.3h3.2c1.3,0,1.9,0.5,1.9,1.6c0,0.5-0.6,1.8-1.7,3.7
		c0,0.2,0.1,0.2,0.2,0.2c1.2,0,1.9,0.4,2.1,1.2c0-0.3,0.1-0.5,0.2-0.6c0.1-0.1,0.2-0.2,0.4-0.2h3.2v-0.5h-3.6
		c-0.3,0-0.6-0.1-0.8-0.3c-0.2-0.2-0.3-0.5-0.3-1c0-0.5,0.1-0.8,0.3-1c0.2-0.2,0.4-0.2,0.8-0.2h3.6V10H107c-0.2,0-0.4-0.1-0.5-0.3
		c-0.1-0.1-0.1-0.4-0.1-0.8c0-0.5,0.1-0.9,0.2-1C106.8,7.7,107,7.6,107.4,7.6L107.4,7.6z M105.2,20.9c0.3,0.2,0.5,0.4,0.8,0.5
		c-0.1-0.2-0.1-0.4-0.1-0.7c0-0.5,0.1-0.9,0.4-1.1c0.2-0.2,0.4-0.3,0.8-0.3h3.2v-0.3h-2.7c-0.3,0-0.6-0.1-0.8-0.3
		c-0.2-0.2-0.3-0.5-0.3-1c0-0.5,0.1-0.8,0.3-1c0.2-0.2,0.4-0.2,0.8-0.2h2.7v-0.4H108c-0.6,0-0.9-0.1-1.1-0.4
		c-0.1-0.1-0.2-0.3-0.2-0.4c-0.1,1.4-0.5,3.1-1.2,5C105.4,20.6,105.3,20.8,105.2,20.9L105.2,20.9z M107.3,22.1
		c0.8,0.3,1.7,0.5,2.9,0.7v-0.7H107.3L107.3,22.1z M114,10v0.5h1.1v-0.2c0-0.2-0.1-0.2-0.4-0.2H114L114,10z M114,13.1v0.5h0.8
		c0.2,0,0.3,0,0.3-0.1v-0.4H114L114,13.1z M132.9,10h3.1V8.2c0-0.9,0.7-1.4,2-1.4c1.3,0,1.9,0.5,2,1.4V10c0.6,0,1,0.2,1.3,0.4
		c0.2,0.3,0.4,0.8,0.4,1.6c0,0.6-0.1,1.1-0.3,1.4c-0.3,0.4-0.8,0.6-1.4,0.6v9.5c0,2-1.2,3-3.7,3c-1-0.1-1.7-0.3-2.2-0.6
		c-0.4-0.3-0.7-0.8-0.7-1.5c0-0.9,0.2-1.5,0.5-1.8c0.3-0.3,0.9-0.4,1.8-0.4c0.1,0,0.2-0.1,0.2-0.3v-3c-1,1.9-2,3.2-2.9,4.1
		c-0.4,0.4-0.8,0.6-1.2,0.6c-0.6,0-1.1-0.3-1.7-1c-0.4-0.6-0.6-1.1-0.7-1.5c0-0.5,0.1-0.9,0.4-1.3c0.1-0.1,0.1-0.1,0.2-0.2
		c-0.1,0-0.1,0-0.2,0c-0.3,0-0.5-0.1-0.7-0.4c-0.2-0.4-0.3-0.7-0.5-1v6.6c0,0.4-0.1,0.8-0.4,1.1c-0.3,0.4-0.9,0.6-1.6,0.6
		c-0.7,0-1.2-0.2-1.5-0.6c-0.3-0.3-0.5-0.6-0.5-1.1v-3.9c-0.3,0.5-0.6,0.7-0.9,0.8c-0.5,0-1.1-0.4-1.7-1c-0.5-0.5-0.8-1-0.8-1.6
		c0-0.2,0.2-0.6,0.5-1c0.7-1.2,1.4-2.4,2-3.7H124c-0.5,0-0.9-0.2-1.2-0.5c-0.3-0.3-0.5-0.8-0.5-1.5c0-0.8,0.2-1.3,0.5-1.6
		c0.2-0.3,0.6-0.4,1.2-0.4h0.9V8.4c0-0.5,0.2-0.9,0.6-1.2c0.3-0.3,0.8-0.4,1.4-0.4c0.6,0,1.1,0.1,1.5,0.4c0.4,0.3,0.6,0.7,0.6,1.2
		v1.8h0.3c0.6,0,1,0.1,1.3,0.4c0.3,0.3,0.5,0.8,0.5,1.6c0,0.7-0.1,1.1-0.3,1.4c-0.3,0.4-0.8,0.6-1.5,0.6h-0.3V15
		c0.3-0.1,0.6-0.1,0.9-0.1c0.3,0,0.5,0.1,0.8,0.3c0.5,0.5,0.9,1.1,1.3,1.8c0.1,0.2,0.2,0.4,0.3,0.5c0.4-0.5,0.8-1,1-1.5
		c0.3-0.6,0.6-1.2,0.9-1.9h-1c-0.6,0-1-0.1-1.3-0.4c-0.3-0.3-0.4-0.8-0.4-1.5c0-0.8,0.1-1.3,0.4-1.6C131.9,10.2,132.3,10,132.9,10z"
		/>
	<g>
		<g>
			<path class="st0" d="M40.3,12.8C40.3,12.8,40.3,12.8,40.3,12.8c-0.5-0.6-1-1.1-1.5-1.6c-0.5-0.5-1.1-1-1.7-1.4
				c-3-2.2-6.7-3.4-10.5-3.4h0c0,0-0.1,0-0.1,0c-1.9,0-3.8,0.3-5.5,0.9l0,0c-0.4,0.1-0.8,0.3-1.2,0.5c-2.1,0.9-4.1,2.2-5.7,3.9l0,0
				c0,0,0,0,0,0c-0.4,0.4-0.9,0.9-1.2,1.4c-0.4,0.5-0.8,1-1.1,1.6c-1.8,2.7-2.8,6-2.8,9.5c0,0,0,0.1,0,0.1v0v0c0,0,0,0.1,0,0.1
				c0,2.4,0.5,4.8,1.5,7c0.2,0.5,0.5,1.1,0.8,1.6c1.2,2.2,2.9,4.1,4.9,5.6V16.5l0-0.1l0,0h0l0-0.1l0,0l0-0.1l0,0h0
				c0-0.5,0.1-1.1,0.2-1.5l0,0c0.1-0.5,0.2-0.9,0.4-1.4c0,0,0-0.1,0-0.1c0.9-2.2,2.7-3.7,5-4.4l0,0l0,0c0.3-0.1,0.6-0.2,0.9-0.3
				c0.3-0.1,0.6-0.1,0.9-0.2c1.6-0.3,3.3-0.2,4.8,0.2l0,0l0,0l0,0l0,0c0.3,0.1,0.6,0.2,0.9,0.3c0.3,0.1,0.6,0.2,0.9,0.4
				c1.6,0.7,3,1.7,4,3.1l0,0c0.2,0.3,0.5,0.6,0.7,1c0.2,0.3,0.4,0.7,0.5,1.1c0.7,1.6,0.9,3.6,0.5,5.8c1.9,0.5,3.9,1.5,5.4,2.9
				c1.7,1.6,2.7,3.7,2.3,6.2c0.3,0.4,0.6,0.8,0.8,1.2c0.3,0.5,0.6,1.1,0.8,1.6c1.2,2.9,1.3,6-0.3,9.1l0,0c-0.2,0.4-0.5,0.8-0.7,1.2
				c-0.3,0.4-0.5,0.8-0.8,1.1c-1.5,1.8-3.6,3.2-5.7,4.1c0,0,0,0-0.1,0c-0.7,0.3-1.4,0.5-2,0.7c-0.7,0.2-1.4,0.3-2.1,0.4
				c-3.7,0.5-7.5-0.3-10.1-3c-0.1-0.1-0.2-0.2-0.3-0.4l0,0l0,0c-0.1-0.2-0.2-0.4-0.3-0.6c-0.1-0.2-0.2-0.4-0.2-0.6l0,0
				c-0.2-1,0.1-2.1,0.9-2.9c0.1-0.1,0.2-0.2,0.4-0.3l0,0l0,0c0.6-0.4,1.2-0.6,1.9-0.6c0.6,0,1.2,0.2,1.8,0.5
				c0.2,0.1,0.3,0.3,0.5,0.4l0,0l0,0c0.2,0.2,0.5,0.4,0.7,0.6c0.3,0.2,0.6,0.3,0.9,0.4c1.7,0.5,3.8,0.3,5.7-0.6l0,0
				c0.3-0.1,0.5-0.2,0.7-0.4c0.2-0.1,0.5-0.3,0.7-0.4c1.2-0.8,2.3-1.8,2.8-3l0,0l0,0c0.1-0.2,0.2-0.4,0.2-0.7l0,0
				c0-0.2,0.1-0.4,0.1-0.7c0.1-1.3-0.5-2.7-2-4.3c0,0,0,0-0.1-0.1c-0.1-0.1-0.2-0.3-0.3-0.4c-0.1-0.1-0.2-0.3-0.3-0.5
				c-0.4-0.9-0.4-1.9,0.1-2.8l0,0l0,0l0,0l0,0l0,0l0,0c0,0,0-0.1,0-0.1c0,0,0-0.1,0-0.1c0-0.3-0.4-0.7-0.8-1l0,0
				c-0.3-0.2-0.6-0.4-1-0.6c-0.3-0.2-0.7-0.3-1.1-0.4c-2-0.5-4.4,0-6.1,0.9l0,0c-0.2,0.1-0.4,0.2-0.6,0.3c-0.2,0.1-0.4,0.1-0.6,0.1
				c-1.1,0.1-2.2-0.2-2.9-1.1l0,0l0,0c-0.2-0.2-0.3-0.4-0.4-0.6c-0.1-0.2-0.2-0.4-0.2-0.7c-0.3-1.2,0.1-2.4,1.1-3.2l0,0h0l0,0l0,0
				l0,0l0,0l0,0c0.1,0,0.1-0.1,0.2-0.2c0.1-0.1,0.2-0.1,0.3-0.2c0.4-0.3,0.9-0.5,1.5-0.7l0,0l0,0l0,0c0.1,0,0.2-0.1,0.4-0.2l0,0l0,0
				c0.1,0,0.2-0.1,0.4-0.2c0.6-0.2,1.1-0.4,1.7-0.5c0.1-0.2,0.1-0.3,0.2-0.5c0.1-0.3,0.1-0.5,0.2-0.8c0.2-1.2,0-2.1-0.5-2.7l0,0l0,0
				l0,0c-0.1-0.1-0.1-0.2-0.2-0.2c-0.1-0.1-0.2-0.2-0.3-0.2c-0.5-0.4-1.2-0.7-1.9-0.9l0,0l0,0c-0.1,0-0.3-0.1-0.4-0.1
				c-0.1,0-0.3,0-0.4-0.1c-0.7-0.1-1.5,0-2.1,0.2l0,0c-0.1,0-0.2,0.1-0.3,0.1C23.2,14.9,23.1,15,23,15l0,0l0,0
				c-0.4,0.3-0.7,0.7-0.7,1.2l0,0.1l0,0l0,0l0,0c0,0.1,0,0.1,0,0.1V44v0h0c0,0.9-0.4,1.7-0.9,2.3c-0.6,0.6-1.4,0.9-2.3,0.9v0h0h0v0
				c-0.2,0-0.5,0-0.7-0.1c0,0,0,0-0.1,0l0,0l0,0c-0.2,0-0.3-0.1-0.5-0.2c-3.1-1.2-5.9-3-8.2-5.3C8.8,40.9,8,40,7.3,39
				c-0.7-0.9-1.4-1.9-1.9-3c-1.9-3.5-3-7.5-3.1-11.6c0-0.1,0-0.1,0-0.2v0v0c0-0.1,0-0.1,0-0.2c0-2.2,0.3-4.3,0.9-6.3
				c0.2-0.7,0.4-1.3,0.6-2C5.1,12.5,7,9.6,9.4,7.1c4.4-4.4,10.4-7.1,17-7.1c0.1,0,0.1,0,0.2,0h0h0c0,0,0.1,0,0.1,0
				c3.7,0,7.1,0.8,10.2,2.3c0.5,0.2,1,0.5,1.5,0.8c2.5,1.4,4.8,3.3,6.9,5.6c0,0,0,0,0,0l0,0c0.1,0.2,0.3,0.3,0.4,0.5
				c0.1,0.2,0.2,0.4,0.2,0.6c0.3,1,0.2,2.1-0.5,2.9c-0.2,0.3-0.4,0.5-0.7,0.7c-0.6,0.4-1.2,0.6-1.9,0.6c-0.7,0-1.3-0.2-1.9-0.6
				C40.7,13.3,40.5,13,40.3,12.8L40.3,12.8z M44.9,40.9L44.9,40.9L44.9,40.9L44.9,40.9z M26.6,14.6L26.6,14.6L26.6,14.6z"/>
		</g>
		<g>
			<path class="st0" d="M39.4,12.9L39.4,12.9L39.4,12.9C39.4,12.9,39.4,13,39.4,12.9c0.1,0.2,0.2,0.3,0.3,0.4
				c0.2,0.2,0.5,0.3,0.8,0.3c0.3,0,0.6-0.1,0.8-0.3c0.1-0.1,0.2-0.2,0.3-0.3c0.3-0.4,0.3-0.8,0.2-1.3c0-0.1-0.1-0.2-0.1-0.2
				c0-0.1-0.1-0.1-0.1-0.2l0,0c-1.9-2.1-4-3.9-6.4-5.2c-0.5-0.3-0.9-0.5-1.4-0.7c-2.9-1.4-6-2.1-9.4-2.2c0,0-0.1,0-0.1,0
				c-6.2,0-11.8,2.5-15.9,6.6c-2.3,2.3-4,5-5.2,8.1C3,18.4,2.8,19,2.6,19.6c-0.5,1.9-0.8,3.9-0.8,5.9c0,0,0,0,0,0.1v0
				c0,0,0,0.1,0,0.1c0,3.8,1,7.5,2.8,10.8c0.5,1,1.1,1.9,1.8,2.7c0.7,0.9,1.4,1.7,2.2,2.5c2.1,2.1,4.7,3.8,7.6,4.9c0,0,0,0,0,0
				c0.1,0,0.1,0.1,0.2,0.1l0,0l0.1,0l0,0l0,0l0,0c0.1,0,0.2,0,0.3,0v0h0h0v0c0.4,0,0.7-0.2,1-0.4c0.2-0.2,0.4-0.6,0.4-1h0v0V17.8
				c0-0.1,0-0.1,0-0.1l0,0c0,0,0,0,0-0.1l0,0c0,0,0-0.1,0-0.1c0-1.2,0.6-2.1,1.5-2.7l0,0c0.2-0.1,0.3-0.2,0.5-0.3
				c0.2-0.1,0.3-0.2,0.5-0.2l0,0l0,0l0,0c0.9-0.3,1.9-0.4,2.9-0.3c0.2,0,0.4,0,0.6,0.1c0.2,0,0.4,0.1,0.5,0.1l0,0l0,0l0,0
				c1,0.2,1.9,0.7,2.6,1.3c0.2,0.1,0.3,0.3,0.4,0.4c0.1,0.1,0.2,0.3,0.3,0.4l0,0l0,0l0,0l0,0l0,0c0.8,1,1.1,2.4,0.8,4.1
				c-0.1,0.3-0.1,0.7-0.2,1c-0.1,0.3-0.2,0.7-0.4,1l0,0l0,0l0,0c-0.1,0.3-0.4,0.5-0.7,0.5c-0.6,0.1-1.3,0.3-1.9,0.5
				c-0.1,0-0.2,0.1-0.4,0.1l0,0c-0.1,0-0.2,0.1-0.4,0.2l0,0l0,0c-0.4,0.2-0.9,0.4-1.2,0.6c-0.1,0-0.1,0.1-0.2,0.1
				c0,0-0.1,0.1-0.1,0.1l0,0C23.1,25,22.9,25.5,23,26c0,0.1,0.1,0.2,0.1,0.3c0,0.1,0.1,0.2,0.2,0.3l0,0l0,0c0.3,0.4,0.8,0.5,1.2,0.5
				c0.1,0,0.2,0,0.3-0.1c0.1,0,0.2-0.1,0.2-0.1l0,0l0,0c2.1-1.2,5-1.7,7.4-1.1c0.5,0.1,1,0.3,1.4,0.5c0.5,0.2,0.9,0.5,1.3,0.8l0,0
				c0.7,0.5,1.4,1.3,1.5,2.2c0,0.2,0,0.4,0,0.6c0,0.2-0.1,0.4-0.2,0.6l0,0c-0.2,0.4-0.2,0.8,0,1.2c0,0.1,0.1,0.1,0.1,0.2
				c0,0.1,0.1,0.1,0.1,0.2c0,0,0,0,0,0.1c0,0,0,0,0,0c1.9,1.9,2.6,3.8,2.5,5.6c0,0.3-0.1,0.7-0.1,1l0,0c-0.1,0.3-0.2,0.6-0.3,1l0,0
				c-0.7,1.6-2,2.9-3.5,3.9c-0.3,0.2-0.6,0.3-0.9,0.5c-0.3,0.2-0.6,0.3-0.9,0.4l0,0c-2.3,1-4.9,1.3-7,0.6c-0.4-0.1-0.8-0.3-1.2-0.6
				c-0.4-0.2-0.8-0.5-1.1-0.8l0,0l0,0l0,0c-0.1-0.1-0.1-0.1-0.2-0.2c-0.2-0.2-0.5-0.2-0.7-0.2c-0.3,0-0.6,0.1-0.8,0.3l0,0
				c-0.1,0-0.1,0.1-0.2,0.1c-0.3,0.3-0.5,0.8-0.4,1.2l0,0c0,0.1,0,0.2,0.1,0.3c0,0.1,0.1,0.2,0.1,0.3l0,0c0,0.1,0.1,0.1,0.1,0.2
				c2.2,2.2,5.4,2.9,8.6,2.5c0.6-0.1,1.3-0.2,1.9-0.4c0.6-0.2,1.2-0.4,1.8-0.6l0,0l0,0c1.9-0.8,3.7-2,5-3.6c0.3-0.3,0.5-0.6,0.7-0.9
				c0.2-0.3,0.4-0.7,0.6-1l0,0l0,0l0,0c1.3-2.5,1.3-5.1,0.2-7.5c-0.2-0.5-0.4-0.9-0.7-1.4c-0.3-0.4-0.6-0.9-0.9-1.3l0,0l0,0l0,0
				c-0.2-0.2-0.3-0.5-0.2-0.8c0-0.1,0-0.2,0-0.3c0.3-1.9-0.5-3.5-1.8-4.7c-1.4-1.3-3.2-2.2-5-2.5c-0.1,0-0.3-0.1-0.4-0.1
				c-0.1,0-0.1,0-0.2,0c-0.5-0.1-0.8-0.6-0.6-1.1c0.6-2.2,0.4-4-0.2-5.5c-0.1-0.3-0.3-0.6-0.4-0.8c-0.2-0.3-0.3-0.5-0.5-0.8l0,0
				c-0.9-1.1-2-2-3.3-2.5c-0.3-0.1-0.5-0.2-0.8-0.3c-0.3-0.1-0.5-0.2-0.8-0.2l0,0l0,0l0,0c-1.3-0.3-2.8-0.4-4.1-0.2
				c-0.2,0-0.5,0.1-0.8,0.2c-0.2,0.1-0.5,0.1-0.7,0.2v0l0,0c-1.7,0.6-3.2,1.8-3.9,3.4c0,0,0,0,0,0.1c-0.1,0.3-0.2,0.7-0.3,1l0,0
				c-0.1,0.4-0.1,0.8-0.1,1.2h0l0,0.1c0,0,0,0.1,0,0.1c0,0.1,0,0,0,0.1c0,0,0,0,0,0.1v23.9h0c0,0.2,0,0.3-0.1,0.5
				c-0.3,0.4-0.8,0.6-1.3,0.3c-3-1.8-5.3-4.3-7-7.2c-0.3-0.6-0.6-1.2-0.9-1.8c-1.1-2.4-1.6-5.1-1.6-7.8c0,0,0-0.1,0-0.1v0
				c0,0,0-0.1,0-0.1c0-3.9,1.2-7.5,3.1-10.6c0.4-0.6,0.8-1.2,1.2-1.7c0.4-0.5,0.9-1,1.4-1.5c0,0,0,0,0,0l0,0
				c1.8-1.8,3.9-3.2,6.3-4.2c0.4-0.2,0.9-0.4,1.4-0.5c0,0,0,0,0,0c1.9-0.6,4-1,6.1-1c0,0,0.1,0,0.1,0h0c0,0,0.1,0,0.1,0
				c4.1,0,8.2,1.4,11.5,3.8c0.6,0.5,1.3,1,1.9,1.5C38.3,11.7,38.8,12.3,39.4,12.9L39.4,12.9L39.4,12.9z M38,14.1
				C38,14.1,38,14.1,38,14.1c-0.5-0.6-1-1.1-1.5-1.6c-0.5-0.5-1.1-1-1.7-1.4c-3-2.2-6.7-3.4-10.5-3.4h0c0,0-0.1,0-0.1,0
				c-1.9,0-3.8,0.3-5.5,0.9l0,0c-0.4,0.1-0.8,0.3-1.2,0.5c-2.1,0.9-4.1,2.2-5.7,3.9l0,0c0,0,0,0,0,0c-0.4,0.4-0.9,0.9-1.2,1.4
				c-0.4,0.5-0.8,1-1.1,1.6c-1.8,2.7-2.8,6-2.8,9.5c0,0,0,0.1,0,0.1v0v0c0,0.1,0,0.1,0,0.1c0,2.4,0.5,4.8,1.5,7
				c0.2,0.5,0.5,1.1,0.8,1.6c1.2,2.2,2.9,4.1,4.9,5.6V17.8l0-0.1l0,0h0l0-0.1l0,0l0-0.1l0,0h0c0-0.5,0.1-1.1,0.2-1.5l0,0
				c0.1-0.5,0.2-0.9,0.4-1.4c0,0,0-0.1,0-0.1c0.9-2.2,2.7-3.7,5-4.4l0,0l0,0c0.3-0.1,0.6-0.2,0.9-0.3c0.3-0.1,0.6-0.1,0.9-0.2
				c1.6-0.3,3.3-0.2,4.8,0.2l0,0l0,0l0,0l0,0c0.3,0.1,0.6,0.2,0.9,0.3c0.3,0.1,0.6,0.2,0.9,0.4c1.6,0.7,3,1.7,4,3.1l0,0
				c0.2,0.3,0.5,0.6,0.7,1c0.2,0.3,0.4,0.7,0.5,1.1c0.7,1.6,0.9,3.6,0.5,5.8c1.9,0.5,3.9,1.5,5.4,2.9c1.7,1.6,2.7,3.7,2.3,6.2
				c0.3,0.4,0.6,0.8,0.8,1.2c0.3,0.5,0.6,1.1,0.8,1.6c1.2,2.9,1.3,6-0.3,9.1l0,0c-0.2,0.4-0.5,0.8-0.7,1.2c-0.3,0.4-0.5,0.8-0.8,1.1
				c-1.5,1.8-3.6,3.2-5.7,4.1c0,0,0,0-0.1,0c-0.7,0.3-1.4,0.5-2,0.7c-0.7,0.2-1.4,0.3-2.1,0.4c-3.7,0.5-7.5-0.3-10.1-3
				c-0.1-0.1-0.2-0.2-0.3-0.4l0,0l0,0c-0.1-0.2-0.2-0.4-0.3-0.6c-0.1-0.2-0.2-0.4-0.2-0.6l0,0c-0.2-1,0.1-2.1,0.9-2.9
				c0.1-0.1,0.2-0.2,0.4-0.3l0,0l0,0c0.6-0.4,1.2-0.6,1.9-0.6c0.6,0,1.2,0.2,1.8,0.5c0.2,0.1,0.3,0.3,0.5,0.4l0,0l0,0
				c0.2,0.2,0.5,0.4,0.7,0.6c0.3,0.2,0.6,0.3,0.9,0.4c1.7,0.5,3.8,0.3,5.7-0.6l0,0c0.3-0.1,0.5-0.2,0.7-0.4c0.2-0.1,0.5-0.3,0.7-0.4
				c1.2-0.8,2.3-1.8,2.8-3l0,0l0,0c0.1-0.2,0.2-0.4,0.2-0.7l0,0c0-0.2,0.1-0.4,0.1-0.7c0.1-1.3-0.5-2.7-2-4.3c0,0,0,0-0.1-0.1
				c-0.1-0.1-0.2-0.3-0.3-0.4c-0.1-0.1-0.2-0.3-0.3-0.5c-0.4-0.9-0.4-1.9,0.1-2.8l0,0l0,0l0,0l0,0l0,0l0,0c0,0,0-0.1,0-0.1
				c0,0,0-0.1,0-0.1c0-0.3-0.4-0.7-0.8-1l0,0c-0.3-0.2-0.6-0.4-1-0.6c-0.3-0.2-0.7-0.3-1.1-0.4c-2-0.5-4.4,0-6.1,0.9l0,0
				c-0.2,0.1-0.4,0.2-0.6,0.3c-0.2,0.1-0.4,0.1-0.6,0.1c-1.1,0.1-2.2-0.2-2.9-1.1l0,0l0,0c-0.2-0.2-0.3-0.4-0.4-0.6
				c-0.1-0.2-0.2-0.4-0.2-0.7c-0.3-1.2,0.1-2.4,1.1-3.2l0,0h0l0,0l0,0l0,0l0,0l0,0c0.1,0,0.1-0.1,0.2-0.2c0.1-0.1,0.2-0.1,0.3-0.2
				c0.4-0.3,0.9-0.5,1.5-0.7l0,0l0,0l0,0c0.1,0,0.2-0.1,0.4-0.2l0,0l0,0c0.1,0,0.2-0.1,0.4-0.2c0.6-0.2,1.1-0.4,1.7-0.5
				c0.1-0.2,0.1-0.3,0.2-0.5c0.1-0.3,0.1-0.5,0.2-0.8c0.2-1.2,0-2.1-0.5-2.7l0,0l0,0l0,0c-0.1-0.1-0.1-0.2-0.2-0.2
				c-0.1-0.1-0.2-0.2-0.3-0.2c-0.5-0.4-1.2-0.7-1.9-0.9l0,0l0,0c-0.1,0-0.3-0.1-0.4-0.1c-0.1,0-0.3,0-0.4-0.1
				c-0.7-0.1-1.5,0-2.1,0.2l0,0c-0.1,0-0.2,0.1-0.3,0.1c-0.1,0.1-0.2,0.1-0.3,0.2l0,0l0,0C20.3,16.6,20,17,20,17.6l0,0.1l0,0l0,0
				l0,0c0,0.1,0,0.1,0,0.1v27.5v0h0c0,0.9-0.4,1.7-0.9,2.3c-0.6,0.6-1.4,0.9-2.3,0.9v0h0h0v0c-0.2,0-0.5,0-0.7-0.1c0,0,0,0-0.1,0
				l0,0l0,0c-0.2,0-0.3-0.1-0.5-0.2c-3.1-1.2-5.9-3-8.2-5.3c-0.8-0.8-1.6-1.7-2.3-2.7c-0.7-0.9-1.4-1.9-1.9-3
				C1.1,33.9,0,29.9,0,25.8c0-0.1,0-0.1,0-0.2v0v0c0-0.1,0-0.1,0-0.2c0-2.2,0.3-4.3,0.9-6.3c0.2-0.7,0.4-1.3,0.6-2
				c1.2-3.3,3.2-6.3,5.6-8.7c4.4-4.4,10.4-7.1,17-7.1c0.1,0,0.1,0,0.2,0h0h0c0,0,0.1,0,0.1,0c3.7,0,7.1,0.8,10.2,2.3
				c0.5,0.2,1,0.5,1.5,0.8c2.5,1.4,4.8,3.3,6.9,5.6c0,0,0,0,0,0l0,0c0.1,0.2,0.3,0.3,0.4,0.5c0.1,0.2,0.2,0.4,0.2,0.6
				c0.3,1,0.2,2.1-0.5,2.9c-0.2,0.3-0.4,0.5-0.7,0.7c-0.6,0.4-1.2,0.6-1.9,0.6c-0.7,0-1.3-0.2-1.9-0.6C38.4,14.6,38.2,14.4,38,14.1
				L38,14.1z M42.6,42.2L42.6,42.2L42.6,42.2L42.6,42.2z M24.3,15.9L24.3,15.9L24.3,15.9z"/>
		</g>
		<path class="st1" d="M38.7,13.5c-3.5-4.2-8.9-6.7-14.4-6.7h0v0c-5.2,0-9.9,2.1-13.3,5.5c-3.4,3.4-5.5,8.1-5.5,13.3h0v0v0h0
			c0,6.5,3.4,12.7,9,16.1V17.8c0-0.1,0-0.1,0-0.2c0-3.5,2.1-5.7,5-6.7c1.9-0.7,4.1-0.7,6.2-0.2c2.1,0.5,4.1,1.7,5.4,3.4
			c1.5,2,2.2,4.7,1.3,8c4,0.6,8.9,3.9,7.9,8.6c2.7,3.3,3.5,7.4,1.5,11.2c-1.4,2.7-4,4.8-6.8,6c-4.5,1.9-9.9,1.8-13.4-1.6
			c-0.9-0.9-0.9-2.3,0-3.2s2.3-0.9,3.2,0c2,2,5.4,1.9,8.3,0.6c1.9-0.8,3.9-2.3,4.8-4.3c0.8-1.9,0.5-4.2-1.9-6.6l0,0
			c-0.7-0.7-0.9-1.7-0.4-2.6c0.5-0.9-0.2-1.8-1-2.4c-2.5-1.9-6.5-1.6-9.2-0.1c-0.9,0.6-2.2,0.4-2.9-0.5c-0.8-1-0.7-2.4,0.3-3.2
			c0.4-0.4,1.1-0.7,1.8-0.9c1-0.4,1.9-0.7,2.9-0.9c1-2.4,0.8-4.2-0.1-5.3c-0.7-0.9-1.7-1.5-2.9-1.7c-1.2-0.3-2.5-0.3-3.5,0.1
			c-1.1,0.4-1.9,1.2-1.9,2.5c0,0.1,0,0.1,0,0.2v27.5c0,1.3-1,2.3-2.3,2.3c-0.3,0-0.6-0.1-0.9-0.2c-9-3.5-15-12.2-15-21.8h0v0v0h0
			c0-6.5,2.6-12.3,6.8-16.5C12,4.9,17.8,2.2,24.3,2.2v0h0c7.1,0,13.3,3.2,18,8.4c0.7,0.8,0.8,2,0.1,2.9
			C41.5,14.8,39.6,14.7,38.7,13.5z"/>
	</g>
</g>
</svg>
