<?xml version="1.0" encoding="UTF-8"?> <svg xmlns="http://www.w3.org/2000/svg" xmlns:xlink="http://www.w3.org/1999/xlink" width="265" height="26" viewBox="0 0 265 26"> <title>teamotea_logo</title> <desc>Created using Figma</desc> <g id="Canvas" transform="translate(6 -7420)"> <g id="teamotea_logo"> <g id="Vector"> <use xlink:href="#path0_fill" transform="translate(-6 7420)" fill="#71A13F"></use> </g> </g> </g> <defs> <path id="path0_fill" d="M 154.701 3.02913C 147.355 3.02913 139.14 8.40222 139.14 16.0832C 139.14 23.0791 149.019 26 154.303 26C 161.54 26 169.936 20.5908 169.936 13.595C 169.936 6.31068 161.034 3.02913 154.701 3.02913ZM 155.135 22.1775C 150.358 22.1775 143.41 18.8239 143.41 13.595C 143.41 8.65465 148.983 6.88766 153.724 6.88766C 158.573 6.88766 165.629 10.2413 165.629 15.4341C 165.485 20.4105 160.093 22.1775 155.135 22.1775ZM 22.1466 24.9903L 16.8995 25.423C 16.8995 25.387 17.2252 18.3551 17.2975 10.9986C 17.3337 7.75312 17.2975 5.22885 17.2614 3.57004C 7.81646 3.71429 -2.76087e-07 4.97642 -2.76087e-07 4.97642L 1.55605 0.216366C 1.55605 0.216366 9.6982 0.288488 19.6497 0.288488C 29.1308 0.288488 37.5624 -5.12458e-15 37.5624 -5.12458e-15L 36.1149 4.50763C 36.1149 4.50763 30.2888 3.67823 21.7486 3.57004C 21.7124 5.22885 21.64 7.681 21.6762 10.3856C 21.7848 18.0305 22.1105 24.9182 22.1466 24.9903ZM 258.414 4.61581L 257.364 4.61581L 257.364 4.2552L 259.861 4.2552L 259.861 4.61581L 258.812 4.61581L 258.812 7.06796L 258.414 7.06796L 258.414 4.61581ZM 260.73 7.06796L 260.332 7.06796L 260.332 4.2552L 260.693 4.2552L 261.707 5.44521L 262.72 4.2552L 263.082 4.2552L 263.082 7.06796L 262.684 7.06796L 262.684 4.86824L 261.707 6.02219L 260.73 4.86824L 260.73 7.06796ZM 191.214 24.9903L 185.967 25.423C 185.967 25.387 186.292 18.3551 186.365 10.9986C 186.401 7.75312 186.365 5.22885 186.329 3.57004C 176.884 3.71429 170.37 4.97642 170.37 4.97642L 171.926 0.216366C 171.926 0.216366 178.802 0.288488 188.753 0.288488C 198.234 0.288488 206.63 -5.12458e-15 206.63 -5.12458e-15L 205.218 4.50763C 205.218 4.50763 199.392 3.67823 190.852 3.57004C 190.816 5.22885 190.743 7.681 190.78 10.3856C 190.852 18.0305 191.214 24.9182 191.214 24.9903ZM 257.943 12.6935C 255.338 8.5104 252.298 2.84882 252.298 2.84882L 248.209 4.32732C 246.291 8.00555 237.932 22.1415 226.641 22.1415C 216.183 22.1415 208.584 15.2178 206.847 13.4508C 208.077 11.9362 212.601 6.95978 219.657 6.95978C 223.638 6.95978 227.184 9.23162 228.053 12.1526C 225.954 12.1165 216.617 11.792 216.617 11.792L 215.315 15.7226L 232.974 15.0014C 233.589 5.01248 224.651 3.02913 221.141 3.02913C 214.12 3.02913 209.127 7.32039 204.712 11.1068C 203.771 11.9001 202.902 12.6574 202.034 13.3426L 201.708 15.362C 204.024 18.1026 214.157 26 224.687 26C 230.151 26 235.76 22.8627 240.718 18.5354C 240.718 18.5354 246.399 18.319 249.62 18.319C 253.022 18.319 256.496 18.5354 256.496 18.5354C 258.341 21.8169 260.259 25.7836 260.259 25.7836L 265 23.1151C 265.036 23.1512 260.766 17.165 257.943 12.6935ZM 249.656 15.362C 248.1 15.362 246.074 15.2899 244.373 15.2178L 244.337 15.1456C 246.436 12.9459 248.498 10.3495 249.946 8.07767L 250.127 8.07767C 251.212 9.77254 252.805 12.3689 254.578 15.2178C 253.203 15.2538 251.357 15.362 249.656 15.362ZM 88.8761 12.6935C 86.2706 8.5104 83.2308 2.84882 83.2308 2.84882L 79.1417 4.32732C 77.2237 8.00555 68.9007 22.1415 57.6102 22.1415C 47.1521 22.1415 39.5527 15.2178 37.8158 13.4508C 39.0461 11.9362 43.5695 6.95978 50.6261 6.95978C 54.6067 6.95978 58.153 9.23162 59.0215 12.1526C 56.9227 12.1165 47.5863 11.792 47.5863 11.792L 46.2836 15.7226L 63.943 15.0014C 64.5582 5.01248 55.6199 3.02913 52.1097 3.02913C 45.0894 3.02913 40.0956 7.32039 35.6807 11.1068C 34.7398 11.9001 33.8713 12.6574 33.0028 13.3426L 32.6772 15.362C 34.9931 18.1026 45.1256 26 55.6561 26C 61.1204 26 66.7294 22.8627 71.6871 18.5354C 71.6871 18.5354 77.3685 18.319 80.5892 18.319C 83.9908 18.319 87.4648 18.5354 87.4648 18.5354C 89.3103 21.8169 91.2282 25.7836 91.2282 25.7836L 95.9688 23.1151C 95.9688 23.1512 91.6625 17.165 88.8761 12.6935ZM 80.553 15.362C 78.9969 15.362 76.9704 15.2899 75.2696 15.2178L 75.2334 15.1456C 77.3323 12.9459 79.395 10.3495 80.8425 8.07767L 80.9872 8.07767C 82.0728 9.77254 83.6651 12.3689 85.4383 15.2178C 84.1355 15.2538 82.2538 15.362 80.553 15.362ZM 134.725 24.5936L 129.768 25.2788C 129.768 25.2788 128.935 13.8474 128.393 9.95284L 128.248 9.91678C 124.665 13.6311 118.839 21.276 118.839 21.276L 115.401 22.6103C 115.401 22.6103 106.897 12.1165 104.835 9.73648L 104.69 9.8086C 104.328 15.6865 103.858 25.3509 103.858 25.3509L 99.7685 24.6657C 99.7685 24.6657 100.926 17.2011 101.252 14.2441C 101.831 8.9792 102.084 5.0846 102.084 5.0846L 106.535 3.67822C 106.535 3.67822 112 11.7198 117.717 18.0305C 123.254 12.3689 128.176 4.57975 128.176 4.57975L 132.084 3.96671C 132.084 3.96671 132.301 9.05132 132.844 13.4508C 133.64 19.4008 134.725 24.5936 134.725 24.5936Z"></path> </defs> </svg> 